<svg width="256" height="64" viewBox="0 0 256 64" fill="none" xmlns="http://www.w3.org/2000/svg">
<g filter="url(#filter0_dd_2_17145)">
<rect x="8" y="4" width="240" height="48" rx="16" fill="url(#paint0_linear_2_17145)"/>
<rect x="9" y="5" width="238" height="46" rx="15" stroke="#95FF4B" stroke-opacity="0.48" stroke-width="2"/>
</g>
<path d="M39.6094 34.6094C40.0156 34.2031 40.4844 34 41.0156 34C41.5469 34 42 34.2031 42.375 34.6094C42.7812 35.0156 42.9844 35.4844 42.9844 36.0156C42.9844 36.5469 42.7812 37.0156 42.375 37.4219C42 37.7969 41.5469 37.9844 41.0156 37.9844C40.4844 37.9844 40.0156 37.7969 39.6094 37.4219C39.2031 37.0156 39 36.5469 39 36.0156C39 35.4844 39.2031 35.0156 39.6094 34.6094ZM24.9844 18.0156H28.2656L29.2031 19.9844H44.0156C44.2969 19.9844 44.5312 20.0938 44.7188 20.3125C44.9062 20.5 45 20.7344 45 21.0156C45 21.0469 44.9531 21.2031 44.8594 21.4844L41.2969 27.9531C40.9219 28.6406 40.3438 28.9844 39.5625 28.9844H32.1094L31.2188 30.625L31.1719 30.7656C31.1719 30.9219 31.25 31 31.4062 31H42.9844V33.0156H30.9844C30.4531 33.0156 29.9844 32.8125 29.5781 32.4062C29.2031 32 29.0156 31.5312 29.0156 31C29.0156 30.6875 29.0938 30.375 29.25 30.0625L30.6094 27.5781L27 19.9844H24.9844V18.0156ZM29.5781 34.6094C29.9844 34.2031 30.4531 34 30.9844 34C31.5156 34 31.9844 34.2031 32.3906 34.6094C32.7969 35.0156 33 35.4844 33 36.0156C33 36.5469 32.7969 37.0156 32.3906 37.4219C31.9844 37.7969 31.5156 37.9844 30.9844 37.9844C30.4531 37.9844 29.9844 37.7969 29.5781 37.4219C29.2031 37.0156 29.0156 36.5469 29.0156 36.0156C29.0156 35.4844 29.2031 35.0156 29.5781 34.6094Z" fill="#95FF4A"/>
<path d="M116.695 21.625V33H115.188V21.625H116.695ZM123.703 21.625L118.766 27.8828H116.094L115.859 26.6328H117.867L121.836 21.625H123.703ZM122.188 33L117.914 27.6875L118.758 26.3672L124.031 33H122.188ZM127.242 32.125L129.594 24.5469H131.141L127.75 34.3047C127.672 34.513 127.568 34.737 127.438 34.9766C127.312 35.2214 127.151 35.4531 126.953 35.6719C126.755 35.8906 126.516 36.0677 126.234 36.2031C125.958 36.3438 125.628 36.4141 125.242 36.4141C125.128 36.4141 124.982 36.3984 124.805 36.3672C124.628 36.3359 124.503 36.3099 124.43 36.2891L124.422 35.1172C124.464 35.1224 124.529 35.1276 124.617 35.1328C124.711 35.1432 124.776 35.1484 124.812 35.1484C125.141 35.1484 125.419 35.1042 125.648 35.0156C125.878 34.9323 126.07 34.7891 126.227 34.5859C126.388 34.388 126.526 34.1146 126.641 33.7656L127.242 32.125ZM125.516 24.5469L127.711 31.1094L128.086 32.6328L127.047 33.1641L123.938 24.5469H125.516ZM138.078 24.5469V25.7422H133.805V24.5469H138.078ZM134.016 24.5469V33H132.57V24.5469H134.016ZM139.359 24.5469V33H137.906V24.5469H139.359ZM143.242 30.7109L147.141 24.5469H148.594V33H147.141V26.8359L143.242 33H141.805V24.5469H143.242V30.7109ZM154.359 24.5469V33H152.906V24.5469H154.359ZM157.195 24.5469V25.7188H150.125V24.5469H157.195ZM159.805 27.4531H162.344C163.026 27.4531 163.602 27.5729 164.07 27.8125C164.539 28.0469 164.893 28.3724 165.133 28.7891C165.378 29.2005 165.5 29.6693 165.5 30.1953C165.5 30.5859 165.432 30.9531 165.297 31.2969C165.161 31.6354 164.958 31.9323 164.688 32.1875C164.422 32.4427 164.091 32.6432 163.695 32.7891C163.305 32.9297 162.854 33 162.344 33H158.75V24.5469H160.195V31.8125H162.344C162.76 31.8125 163.094 31.737 163.344 31.5859C163.594 31.4349 163.773 31.2396 163.883 31C163.992 30.7604 164.047 30.5104 164.047 30.25C164.047 29.9948 163.992 29.7448 163.883 29.5C163.773 29.2552 163.594 29.0521 163.344 28.8906C163.094 28.724 162.76 28.6406 162.344 28.6406H159.805V27.4531Z" fill="white"/>
<defs>
<filter id="filter0_dd_2_17145" x="0" y="0" width="256" height="64" filterUnits="userSpaceOnUse" color-interpolation-filters="sRGB">
<feFlood flood-opacity="0" result="BackgroundImageFix"/>
<feColorMatrix in="SourceAlpha" type="matrix" values="0 0 0 0 0 0 0 0 0 0 0 0 0 0 0 0 0 0 127 0" result="hardAlpha"/>
<feOffset dy="4"/>
<feGaussianBlur stdDeviation="4"/>
<feColorMatrix type="matrix" values="0 0 0 0 0.2375 0 0 0 0 0.575 0 0 0 0 0 0 0 0 0.48 0"/>
<feBlend mode="normal" in2="BackgroundImageFix" result="effect1_dropShadow_2_17145"/>
<feColorMatrix in="SourceAlpha" type="matrix" values="0 0 0 0 0 0 0 0 0 0 0 0 0 0 0 0 0 0 127 0" result="hardAlpha"/>
<feMorphology radius="4" operator="dilate" in="SourceAlpha" result="effect2_dropShadow_2_17145"/>
<feOffset/>
<feComposite in2="hardAlpha" operator="out"/>
<feColorMatrix type="matrix" values="0 0 0 0 0.356863 0 0 0 0 0.752941 0 0 0 0 0.0784314 0 0 0 0.24 0"/>
<feBlend mode="normal" in2="effect1_dropShadow_2_17145" result="effect2_dropShadow_2_17145"/>
<feBlend mode="normal" in="SourceGraphic" in2="effect2_dropShadow_2_17145" result="shape"/>
</filter>
<linearGradient id="paint0_linear_2_17145" x1="128" y1="52" x2="128" y2="4" gradientUnits="userSpaceOnUse">
<stop stop-color="#51A814"/>
<stop offset="1" stop-color="#368300"/>
</linearGradient>
</defs>
</svg>
