<svg width="256" height="66" viewBox="0 0 256 66" fill="none" xmlns="http://www.w3.org/2000/svg">
<g filter="url(#filter0_dd_2_17127)">
<rect x="8" y="6" width="240" height="48" rx="16" fill="url(#paint0_linear_2_17127)"/>
<rect x="10" y="8" width="236" height="44" rx="14" stroke="#95FF4B" stroke-opacity="0.64" stroke-width="4"/>
</g>
<path d="M39.6094 36.6094C40.0156 36.2031 40.4844 36 41.0156 36C41.5469 36 42 36.2031 42.375 36.6094C42.7812 37.0156 42.9844 37.4844 42.9844 38.0156C42.9844 38.5469 42.7812 39.0156 42.375 39.4219C42 39.7969 41.5469 39.9844 41.0156 39.9844C40.4844 39.9844 40.0156 39.7969 39.6094 39.4219C39.2031 39.0156 39 38.5469 39 38.0156C39 37.4844 39.2031 37.0156 39.6094 36.6094ZM24.9844 20.0156H28.2656L29.2031 21.9844H44.0156C44.2969 21.9844 44.5312 22.0938 44.7188 22.3125C44.9062 22.5 45 22.7344 45 23.0156C45 23.0469 44.9531 23.2031 44.8594 23.4844L41.2969 29.9531C40.9219 30.6406 40.3438 30.9844 39.5625 30.9844H32.1094L31.2188 32.625L31.1719 32.7656C31.1719 32.9219 31.25 33 31.4062 33H42.9844V35.0156H30.9844C30.4531 35.0156 29.9844 34.8125 29.5781 34.4062C29.2031 34 29.0156 33.5312 29.0156 33C29.0156 32.6875 29.0938 32.375 29.25 32.0625L30.6094 29.5781L27 21.9844H24.9844V20.0156ZM29.5781 36.6094C29.9844 36.2031 30.4531 36 30.9844 36C31.5156 36 31.9844 36.2031 32.3906 36.6094C32.7969 37.0156 33 37.4844 33 38.0156C33 38.5469 32.7969 39.0156 32.3906 39.4219C31.9844 39.7969 31.5156 39.9844 30.9844 39.9844C30.4531 39.9844 29.9844 39.7969 29.5781 39.4219C29.2031 39.0156 29.0156 38.5469 29.0156 38.0156C29.0156 37.4844 29.2031 37.0156 29.5781 36.6094Z" fill="#95FF4A"/>
<path d="M116.695 23.625V35H115.188V23.625H116.695ZM123.703 23.625L118.766 29.8828H116.094L115.859 28.6328H117.867L121.836 23.625H123.703ZM122.188 35L117.914 29.6875L118.758 28.3672L124.031 35H122.188ZM127.242 34.125L129.594 26.5469H131.141L127.75 36.3047C127.672 36.513 127.568 36.737 127.438 36.9766C127.312 37.2214 127.151 37.4531 126.953 37.6719C126.755 37.8906 126.516 38.0677 126.234 38.2031C125.958 38.3438 125.628 38.4141 125.242 38.4141C125.128 38.4141 124.982 38.3984 124.805 38.3672C124.628 38.3359 124.503 38.3099 124.43 38.2891L124.422 37.1172C124.464 37.1224 124.529 37.1276 124.617 37.1328C124.711 37.1432 124.776 37.1484 124.812 37.1484C125.141 37.1484 125.419 37.1042 125.648 37.0156C125.878 36.9323 126.07 36.7891 126.227 36.5859C126.388 36.388 126.526 36.1146 126.641 35.7656L127.242 34.125ZM125.516 26.5469L127.711 33.1094L128.086 34.6328L127.047 35.1641L123.938 26.5469H125.516ZM138.078 26.5469V27.7422H133.805V26.5469H138.078ZM134.016 26.5469V35H132.57V26.5469H134.016ZM139.359 26.5469V35H137.906V26.5469H139.359ZM143.242 32.7109L147.141 26.5469H148.594V35H147.141V28.8359L143.242 35H141.805V26.5469H143.242V32.7109ZM154.359 26.5469V35H152.906V26.5469H154.359ZM157.195 26.5469V27.7188H150.125V26.5469H157.195ZM159.805 29.4531H162.344C163.026 29.4531 163.602 29.5729 164.07 29.8125C164.539 30.0469 164.893 30.3724 165.133 30.7891C165.378 31.2005 165.5 31.6693 165.5 32.1953C165.5 32.5859 165.432 32.9531 165.297 33.2969C165.161 33.6354 164.958 33.9323 164.688 34.1875C164.422 34.4427 164.091 34.6432 163.695 34.7891C163.305 34.9297 162.854 35 162.344 35H158.75V26.5469H160.195V33.8125H162.344C162.76 33.8125 163.094 33.737 163.344 33.5859C163.594 33.4349 163.773 33.2396 163.883 33C163.992 32.7604 164.047 32.5104 164.047 32.25C164.047 31.9948 163.992 31.7448 163.883 31.5C163.773 31.2552 163.594 31.0521 163.344 30.8906C163.094 30.724 162.76 30.6406 162.344 30.6406H159.805V29.4531Z" fill="white"/>
<defs>
<filter id="filter0_dd_2_17127" x="0" y="0" width="256" height="66" filterUnits="userSpaceOnUse" color-interpolation-filters="sRGB">
<feFlood flood-opacity="0" result="BackgroundImageFix"/>
<feColorMatrix in="SourceAlpha" type="matrix" values="0 0 0 0 0 0 0 0 0 0 0 0 0 0 0 0 0 0 127 0" result="hardAlpha"/>
<feOffset dy="4"/>
<feGaussianBlur stdDeviation="4"/>
<feColorMatrix type="matrix" values="0 0 0 0 0.2375 0 0 0 0 0.575 0 0 0 0 0 0 0 0 0.48 0"/>
<feBlend mode="normal" in2="BackgroundImageFix" result="effect1_dropShadow_2_17127"/>
<feColorMatrix in="SourceAlpha" type="matrix" values="0 0 0 0 0 0 0 0 0 0 0 0 0 0 0 0 0 0 127 0" result="hardAlpha"/>
<feMorphology radius="6" operator="dilate" in="SourceAlpha" result="effect2_dropShadow_2_17127"/>
<feOffset/>
<feComposite in2="hardAlpha" operator="out"/>
<feColorMatrix type="matrix" values="0 0 0 0 0.356863 0 0 0 0 0.752941 0 0 0 0 0.0784314 0 0 0 0.24 0"/>
<feBlend mode="normal" in2="effect1_dropShadow_2_17127" result="effect2_dropShadow_2_17127"/>
<feBlend mode="normal" in="SourceGraphic" in2="effect2_dropShadow_2_17127" result="shape"/>
</filter>
<linearGradient id="paint0_linear_2_17127" x1="128" y1="6" x2="128" y2="54" gradientUnits="userSpaceOnUse">
<stop stop-color="#58BD11"/>
<stop offset="1" stop-color="#45940E"/>
</linearGradient>
</defs>
</svg>
